HIERARCHY
ROOT Hips
{
  OFFSET 0.0 -5.0 0.0
  CHANNELS 6 Xposition Yposition Zposition Zrotation Xrotation Yrotation
  JOINT Spine
  {
    OFFSET 0 12.0259 -0.162855
    CHANNELS 3 Zrotation Xrotation Yrotation
    JOINT Spine1
    {
      OFFSET 0 15.3169 -0.0121922
      CHANNELS 3 Zrotation Xrotation Yrotation
      JOINT Spine2
      {
        OFFSET 0 15.3176 -0.0121908
        CHANNELS 3 Zrotation Xrotation Yrotation
        JOINT Neck
        {
          OFFSET 0 19.9142 1.56338
          CHANNELS 3 Zrotation Xrotation Yrotation
          JOINT Head
          {
            OFFSET 0 6.92651 0
            CHANNELS 3 Zrotation Xrotation Yrotation
            End Site
            {
              OFFSET 0 20.7666 0
            }
          }
          JOINT LeftShoulder
          {
            OFFSET 7.28219 -6.20654 0.708824
            CHANNELS 3 Zrotation Xrotation Yrotation
            JOINT LeftArm
            {
              OFFSET 14.108 0 -1.52588e-005
              CHANNELS 3 Zrotation Xrotation Yrotation
              JOINT LeftForeArm
              {
                OFFSET 28.5802 0 0
                CHANNELS 3 Zrotation Xrotation Yrotation
                JOINT LeftHand
                {
                  OFFSET 27.092 0 0
                  CHANNELS 3 Zrotation Xrotation Yrotation
                  End Site
                  {
                    OFFSET 9.55928 0.186424 -0.145352
                  }
                }
              }
            }
          }
          JOINT RightShoulder
          {
            OFFSET -7.28218 -6.20654 0.708866
            CHANNELS 3 Zrotation Xrotation Yrotation
            JOINT RightArm
            {
              OFFSET -14.108 0 0
              CHANNELS 3 Zrotation Xrotation Yrotation
              JOINT RightForeArm
              {
                OFFSET -28.5802 0 0
                CHANNELS 3 Zrotation Xrotation Yrotation
                JOINT RightHand
                {
                  OFFSET -27.092 0 0
                  CHANNELS 3 Zrotation Xrotation Yrotation
                  End Site
                  {
                    OFFSET -9.55929 0.186417 -0.145354
                  }
                }
              }
            }
          }
        }
      }
    }
  }
  JOINT LeftUpLeg
  {
    OFFSET 8.837 0.005 -0.535
    CHANNELS 3 Zrotation Xrotation Yrotation
    JOINT LeftLeg
    {
      OFFSET 0 -39.9035 0
      CHANNELS 3 Zrotation Xrotation Yrotation
      JOINT LeftFoot
      {
        OFFSET 0 -39.6689 0
        CHANNELS 3 Zrotation Xrotation Yrotation
        JOINT LeftToe
        {
          OFFSET 0 -10.1624 13.6296
          CHANNELS 3 Zrotation Xrotation Yrotation
          End Site
          {
            OFFSET 0 0 8.38147
          }
        }
      }
    }
  }
  JOINT RightUpLeg
  {
    OFFSET -8.837 0.005 -0.535
    CHANNELS 3 Zrotation Xrotation Yrotation
    JOINT RightLeg
    {
      OFFSET 0 -39.9035 0
      CHANNELS 3 Zrotation Xrotation Yrotation
      JOINT RightFoot
      {
        OFFSET 0 -39.6689 0
        CHANNELS 3 Zrotation Xrotation Yrotation
        JOINT RightToe
        {
          OFFSET 0 -10.1624 13.6296
          CHANNELS 3 Zrotation Xrotation Yrotation
          End Site
          {
            OFFSET 0 0 8.38147
          }
        }
      }
    }
  }
}
MOTION
Frames:	6
Frame Time:	0.00833333
-2.32754 84.003 247.228 1.39556 -2.4928 -179.986 0.781924 3.77951 0.994412 1.50276 7.57176 1.94329 1.50276 7.57175 1.9433 -4.8016 -10.9937 -3.96839 8.12512 36.3102 -12.4734 2.75447 10.274 3.92605 -87.3567 38.207 -2.70797 26.6107 -12.8428 -47.7869 0.512581 -15.9901 0.427366 3.98896 11.7066 3.46191 85.2834 10.0791 12.5526 -17.696 -4.27091 30.0596 -0.250784 9.31081 0.349102 5.18498 -35.1434 -6.62967 -0.354219 49.5631 -0.684704 2.33793 -1.56869 -9.76353 -1.59028e-015 -1.59028e-015 -0 9.2892 2.86117 -1.26562 -1.09811 33.4234 2.79114 -2.91062 -15.1457 -16.885 -1.59028e-015 -3.18055e-015 -0 
-2.19638 83.821 246.531 1.13667 -2.58178 -179.779 0.670085 3.77009 1.00244 1.27797 7.55112 1.96694 1.27797 7.55112 1.96694 -4.75701 -10.9722 -4.01432 8.46583 36.2306 -12.6379 2.71598 10.2481 3.98659 -87.1521 38.7237 -3.07212 26.8309 -13.1712 -48.3906 0.514872 -15.9408 0.417325 3.96355 11.6985 3.51037 85.5723 10.8845 11.575 -18.0006 -4.44619 30.6223 -0.273894 8.95068 0.363502 5.1803 -34.9713 -6.16756 -0.324646 49.8661 -0.705614 2.44195 -2.05909 -10.4234 2.38542e-015 0 -0 9.10699 2.70107 -1.82497 -1.19676 34.5121 2.8333 -2.89226 -15.2096 -16.6869 -7.95139e-016 -3.18055e-015 1.59028e-015 
-2.0634 83.6669 245.826 0.835874 -2.67665 -179.624 0.544191 3.77073 1.01141 1.02477 7.55033 1.99331 1.02477 7.55034 1.99331 -4.67097 -10.9671 -4.04935 8.7253 36.1041 -12.7432 2.63505 10.2336 4.04418 -86.9399 39.1959 -3.46052 27.0581 -13.5118 -49.0227 0.515765 -15.6828 0.404548 3.89527 11.7032 3.55572 85.8556 11.719 10.6306 -18.3433 -4.6473 31.2677 -0.296458 8.40165 0.374212 5.19304 -34.8418 -5.52202 -0.302819 50.1852 -0.718042 2.52184 -2.47791 -11.0127 2.38542e-015 3.18055e-015 -3.18055e-015 8.86866 2.44613 -2.3948 -1.30536 35.7742 2.87747 -2.80628 -15.1249 -16.4798 -7.95139e-016 3.18055e-015 -3.18055e-015 
-1.92985 83.5294 245.118 0.537947 -2.75798 -179.463 0.421056 3.78598 1.00378 0.777968 7.57869 1.9861 0.777969 7.57869 1.98611 -4.5933 -11.0389 -4.06896 8.95065 35.9738 -12.7786 2.56004 10.2951 4.08003 -86.7306 39.6102 -3.88265 27.2916 -13.8733 -49.6857 0.518302 -15.4823 0.392028 3.83052 11.7829 3.57915 86.098 12.5677 9.75455 -18.6772 -4.84615 31.907 -0.316066 7.74341 0.382743 5.18774 -34.7057 -4.8955 -0.278142 50.5079 -0.73229 2.57656 -2.86556 -11.521 -2.38542e-015 1.59028e-015 -0 8.57757 2.04914 -3.06782 -1.44617 37.2873 2.94038 -2.62783 -14.8415 -16.1256 -1.59028e-015 0 1.59028e-015 
-1.797 83.3971 244.414 0.287806 -2.8063 -179.239 0.317603 3.81996 0.962078 0.57263 7.64473 1.90926 0.57263 7.64473 1.90926 -4.57401 -11.2465 -4.06871 9.18931 35.8825 -12.7333 2.53968 10.4952 4.07554 -86.5356 39.9532 -4.34749 27.5303 -14.2636 -50.3826 0.525215 -15.6052 0.382592 3.81604 11.9976 3.5621 86.2616 13.4158 8.98242 -18.9583 -5.01654 32.4512 -0.330346 7.05574 0.390675 5.12522 -34.5415 -4.49193 -0.239645 50.8457 -0.758665 2.60351 -3.26219 -11.9381 -7.95139e-016 -3.18055e-015 6.36111e-015 8.2312 1.46267 -3.93668 -1.64061 39.1281 3.03876 -2.33824 -14.3056 -15.4887 7.95139e-016 -3.18055e-015 1.59028e-015 
-1.66739 83.2635 243.719 0.0994637 -2.81589 -178.886 0.242208 3.88355 0.862361 0.427125 7.77032 1.71416 0.427125 7.77031 1.71416 -4.6542 -11.7104 -4.03998 9.44603 35.8807 -12.5578 2.61045 10.957 4.00585 -86.348 40.1991 -4.89506 27.7799 -14.6993 -51.1448 0.540278 -16.2263 0.376955 3.88688 12.469 3.47843 86.2975 14.2955 8.36549 -19.1714 -5.15041 32.8658 -0.338077 6.32584 0.399921 4.98529 -34.3759 -4.37812 -0.18259 51.2235 -0.799812 2.60528 -3.67106 -12.2968 -3.18055e-015 -6.36111e-015 6.36111e-015 7.82555 0.65954 -5.1212 -1.88985 41.3818 3.17048 -1.95083 -13.5469 -14.5474 2.38542e-015 -6.36111e-015 -3.18055e-015 
